<?xml version="1.0" encoding="UTF-8" standalone="no"?>
<svg xmlns="http://www.w3.org/2000/svg" width="200" height="60" viewBox="0 0 200 60">
  <g fill="#1a1a1a">
    <path d="M20,15 h5 v30 h-5 Z M15,15 v30 h-5 v-30 Z M10,30 h10 v-5 h-10 Z"/>
    <path d="M35,15 c8,0 12,6 12,15 c0,9 -4,15 -12,15 c-8,0 -12,-6 -12,-15 c0,-9 4,-15 12,-15 Z M35,20 c-5,0 -7,4 -7,10 c0,6 2,10 7,10 c5,0 7,-4 7,-10 c0,-6 -2,-10 -7,-10 Z"/>
    <path d="M60,15 c8,0 12,6 12,15 c0,9 -4,15 -12,15 c-8,0 -12,-6 -12,-15 c0,-9 4,-15 12,-15 Z M60,20 c-5,0 -7,4 -7,10 c0,6 2,10 7,10 c5,0 7,-4 7,-10 c0,-6 -2,-10 -7,-10 Z"/>
    <path d="M75,15 h5 v10 l10,-10 h7 l-12,12 l13,18 h-7 l-10,-14 l-1,1 v13 h-5 Z"/>
    
    <path d="M110,15 h-8 v30 h5 v-12 h3 c6,0 10,-3 10,-9 c0,-6 -4,-9 -10,-9 Z M110,28 h-3 v-8 h3 c3,0 5,1 5,4 c0,3 -2,4 -5,4 Z"/>
    <path d="M125,15 h5 v25 h12 v5 h-17 Z"/>
    <path d="M145,15 h5 v12 h10 v-12 h5 v30 h-5 v-13 h-10 v13 h-5 Z"/>
    <path d="M175,15 h5 v30 h-5 Z"/>
    <path d="M185,15 h5 v25 h10 v5 h-15 Z"/>
    <path d="M200,15 h5 v30 h-5 Z"/>
  </g>
</svg>